<?xml version="1.0" encoding="UTF-8" standalone="no"?>
<!-- Created with Inkscape (http://www.inkscape.org/) -->

<svg
   xmlns:dc="http://purl.org/dc/elements/1.1/"
   xmlns:cc="http://creativecommons.org/ns#"
   xmlns:rdf="http://www.w3.org/1999/02/22-rdf-syntax-ns#"
   xmlns:svg="http://www.w3.org/2000/svg"
   xmlns="http://www.w3.org/2000/svg"
   xmlns:sodipodi="http://sodipodi.sourceforge.net/DTD/sodipodi-0.dtd"
   xmlns:inkscape="http://www.inkscape.org/namespaces/inkscape"
   width="18.035334mm"
   height="17.500378mm"
   viewBox="0 0 18.035334 17.500378"
   version="1.1"
   id="svg13826"
   inkscape:version="0.92.4 (5da689c313, 2019-01-14)"
   sodipodi:docname="ip.svg">
  <defs
     id="defs13820" />
  <sodipodi:namedview
     id="base"
     pagecolor="#ffffff"
     bordercolor="#666666"
     borderopacity="1.0"
     inkscape:pageopacity="0.0"
     inkscape:pageshadow="2"
     inkscape:zoom="2.8284271"
     inkscape:cx="-59.685161"
     inkscape:cy="43.008462"
     inkscape:document-units="mm"
     inkscape:current-layer="layer1"
     showgrid="false"
     inkscape:window-width="2039"
     inkscape:window-height="1154"
     inkscape:window-x="26"
     inkscape:window-y="26"
     inkscape:window-maximized="0"
     fit-margin-top="0"
     fit-margin-left="0"
     fit-margin-right="0"
     fit-margin-bottom="0" />
  <metadata
     id="metadata13823">
    <rdf:RDF>
      <cc:Work
         rdf:about="">
        <dc:format>image/svg+xml</dc:format>
        <dc:type
           rdf:resource="http://purl.org/dc/dcmitype/StillImage" />
        <dc:title></dc:title>
      </cc:Work>
    </rdf:RDF>
  </metadata>
  <g
     inkscape:label="Calque 1"
     inkscape:groupmode="layer"
     id="layer1"
     transform="translate(-0.99262638,-1.174181)">
    <g
       id="g70"
       transform="matrix(1.0148887,0,0,1.0148887,16.902146,-2.698726)">
      <path
         inkscape:export-ydpi="250.55"
         inkscape:export-xdpi="250.55"
         inkscape:export-filename="new.png"
         inkscape:connector-curvature="0"
         id="path3055"
         d="m -6.8492015,4.2724668 a 1.1191255,1.1099671 0 0 0 -0.4288818,0.1085303 l -5.8524037,2.7963394 a 1.1191255,1.1099671 0 0 0 -0.605524,0.7529759 l -1.443828,6.2812846 a 1.1191255,1.1099671 0 0 0 0.151943,0.851028 1.1191255,1.1099671 0 0 0 0.06362,0.08832 l 4.0508,5.036555 a 1.1191255,1.1099671 0 0 0 0.874979,0.417654 l 6.4961011,-0.0015 a 1.1191255,1.1099671 0 0 0 0.8749788,-0.416906 L 1.3818872,15.149453 A 1.1191255,1.1099671 0 0 0 1.5981986,14.210104 L 0.15212657,7.9288154 A 1.1191255,1.1099671 0 0 0 -0.45339794,7.1758396 L -6.3065496,4.3809971 A 1.1191255,1.1099671 0 0 0 -6.8492015,4.2724668 Z"
         style="fill:#326ce5;fill-opacity:1;stroke:none;stroke-width:0;stroke-miterlimit:4;stroke-dasharray:none;stroke-opacity:1" />
      <path
         id="path3054-2-9"
         d="M -6.8523435,3.8176372 A 1.1814304,1.171762 0 0 0 -7.3044284,3.932904 l -6.1787426,2.9512758 a 1.1814304,1.171762 0 0 0 -0.639206,0.794891 l -1.523915,6.6308282 a 1.1814304,1.171762 0 0 0 0.160175,0.89893 1.1814304,1.171762 0 0 0 0.06736,0.09281 l 4.276094,5.317236 a 1.1814304,1.171762 0 0 0 0.92363,0.440858 l 6.8576188,-0.0015 a 1.1814304,1.171762 0 0 0 0.9236308,-0.44011 l 4.2745966,-5.317985 a 1.1814304,1.171762 0 0 0 0.228288,-0.990993 L 0.53894439,7.6775738 A 1.1814304,1.171762 0 0 0 -0.10026101,6.8834313 L -6.2790037,3.9321555 A 1.1814304,1.171762 0 0 0 -6.8523435,3.8176372 Z m 0.00299,0.4550789 a 1.1191255,1.1099671 0 0 1 0.5426517,0.1085303 l 5.85315169,2.7948425 A 1.1191255,1.1099671 0 0 1 0.15197811,7.9290648 L 1.598051,14.21035 a 1.1191255,1.1099671 0 0 1 -0.2163123,0.939348 l -4.0493032,5.037304 a 1.1191255,1.1099671 0 0 1 -0.8749789,0.416906 l -6.4961006,0.0015 a 1.1191255,1.1099671 0 0 1 -0.874979,-0.417652 l -4.0508,-5.036554 a 1.1191255,1.1099671 0 0 1 -0.06362,-0.08832 1.1191255,1.1099671 0 0 1 -0.151942,-0.851028 l 1.443827,-6.2812853 a 1.1191255,1.1099671 0 0 1 0.605524,-0.7529758 l 5.8524036,-2.7963395 a 1.1191255,1.1099671 0 0 1 0.4288819,-0.1085303 z"
         style="color:#000000;font-style:normal;font-variant:normal;font-weight:normal;font-stretch:normal;font-size:medium;line-height:normal;font-family:Sans;-inkscape-font-specification:Sans;text-indent:0;text-align:start;text-decoration:none;text-decoration-line:none;letter-spacing:normal;word-spacing:normal;text-transform:none;writing-mode:lr-tb;direction:ltr;baseline-shift:baseline;text-anchor:start;display:inline;overflow:visible;visibility:visible;fill:#ffffff;fill-opacity:1;fill-rule:nonzero;stroke:none;stroke-width:0;stroke-miterlimit:4;stroke-dasharray:none;marker:none;enable-background:accumulate"
         inkscape:connector-curvature="0" />
    </g>
    <path
       id="path1402"
       d="m 11.646777,8.6435163 c -0.267973,-1.6836958 -0.90002,-2.8658654 -1.635559,-2.8658654 -0.7355398,0 -1.3675878,1.1821696 -1.63556,2.8658654 z M 8.2370506,10.453537 c 0,0.418568 0.022179,0.820166 0.060988,1.206682 h 3.4245104 c 0.03881,-0.386516 0.06099,-0.788114 0.06099,-1.206682 0,-0.418567 -0.02218,-0.8201657 -0.06099,-1.2066804 H 8.2980381 C 8.2592291,9.6333713 8.2370501,10.03497 8.2370506,10.453537 Z M 14.237801,8.6435163 C 13.709247,7.3633041 12.639202,6.3734494 11.317818,5.9737367 c 0.450934,0.6372779 0.761413,1.596966 0.924045,2.6697796 z M 8.7027692,5.9737367 C 7.3832329,6.3734494 6.3113401,7.3633041 5.7846345,8.6435163 H 7.7805726 C 7.9413564,7.5707027 8.2518354,6.6110146 8.7027692,5.9737367 Z m 5.7327778,3.2731199 h -2.11976 c 0.03881,0.3959417 0.06099,0.8013114 0.06099,1.2066804 0,0.40537 -0.02218,0.810739 -0.06099,1.206682 h 2.117911 c 0.101645,-0.386516 0.158936,-0.788114 0.158936,-1.206682 0,-0.418567 -0.05729,-0.8201657 -0.157087,-1.2066804 z M 7.6456614,10.453537 c 0,-0.405369 0.022179,-0.8107387 0.060987,-1.2066804 h -2.11976 c -0.099797,0.3865147 -0.158936,0.7881134 -0.158936,1.2066804 0,0.418568 0.05914,0.820166 0.158936,1.206682 h 2.1179115 c -0.036962,-0.395943 -0.05914,-0.801312 -0.05914,-1.206682 z m 0.7299959,1.810021 c 0.2679729,1.683697 0.9000209,2.865865 1.6355607,2.865865 0.735539,0 1.367586,-1.182168 1.635559,-2.865865 z m 2.9440077,2.66978 c 1.319537,-0.399712 2.39143,-1.389568 2.919984,-2.66978 h -1.995938 c -0.162632,1.072814 -0.473112,2.032503 -0.924046,2.66978 z m -5.5350305,-2.66978 c 0.5285541,1.280212 1.5985984,2.270068 2.9199837,2.66978 -0.4509344,-0.637277 -0.7614141,-1.596966 -0.9240456,-2.66978 z"
       inkscape:connector-curvature="0"
       style="fill:#ffffff;fill-opacity:1;stroke-width:0.01866671" />
  </g>
</svg>
