<svg xmlns="http://www.w3.org/2000/svg" viewBox="0 0 1212.01 233"><defs><style>.cls-1{fill:#014e66;}.cls-2{fill:#f5861f;}.cls-3{fill:#006582;}</style></defs><title>clvr-logo</title><g id="Layer_2" data-name="Layer 2"><g id="Calque_1" data-name="Calque 1"><path class="cls-1" d="M1101.24,156.84a53.24,53.24,0,0,0,26.62-21.32q9.53-14.82,9.52-36.75a76.49,76.49,0,0,0-4.33-26.5,55.62,55.62,0,0,0-12.53-20.12,54.86,54.86,0,0,0-20-12.77,75.41,75.41,0,0,0-26.75-4.46H982.64l-18.42,30.6h109.55q15.9,0,24.7,8.31t8.79,25.42q0,17.11-8.43,26.15t-25.06,9h-31.54l68.41,75.66,101.37,2Z"/><polygon class="cls-2" points="662.42 65.52 631.82 65.52 631.82 210.09 780.24 210.09 780.24 179.49 662.42 179.49 662.42 65.52"/><path class="cls-2" d="M948,34.92h-.52L868.19,169.85,788.68,34.92H751.33l100.72,167.7a23.14,23.14,0,0,0,6.26,7.23A14.31,14.31,0,0,0,867,212.5a13.92,13.92,0,0,0,8.43-2.65,23.27,23.27,0,0,0,6.26-7.23l82.54-137.1,18.42-30.6Z"/><path class="cls-2" d="M631.82,34.92H512.06a91.36,91.36,0,0,0-33.85,6.14,80.4,80.4,0,0,0-27,17.35,78.21,78.21,0,0,0-17.83,27.11A93.55,93.55,0,0,0,427,120.7a96.62,96.62,0,0,0,6.38,35.42,85,85,0,0,0,17.83,28.31,84,84,0,0,0,27,18.79,82.77,82.77,0,0,0,33.85,6.87H607v-30.6H512.06a54.19,54.19,0,0,1-21.8-4.34A52.1,52.1,0,0,1,473,163.23,54.52,54.52,0,0,1,461.7,145a62.92,62.92,0,0,1-4.09-22.89,61.78,61.78,0,0,1,4.09-22.89A53.75,53.75,0,0,1,473,81.42a51.63,51.63,0,0,1,17.23-11.68,55.52,55.52,0,0,1,21.8-4.22H662.42V34.92Z"/><path class="cls-3" d="M200.14,206.19c8.79-6.27,22.35.7,22.55,11.33,1,10.2-10.71,18.67-20.16,14.31C191.85,228,190.31,211.86,200.14,206.19Zm6.55,7.05c-7.33,2.32-2.59,13.47,4.25,9.68C215.65,219.57,212.3,212.09,206.69,213.24Z"/><path class="cls-1" d="M267.15,30.74c-34.51-32.48-89-40.11-131.34-18.64q-8.73,5.12-17.4,10.38c3.72,3.87,7.39,7.77,11,11.82,4.39-2.8,8.81-5.55,13.27-8.29C179,7,226.18,13.55,256,41.47c3.4,3.7,6.81,7.45,10.18,11.24q6.38-4.68,13.07-9C275.27,39.33,271.2,35,267.15,30.74Z"/><path class="cls-2" d="M59.89,88.57C74.33,83.51,91.14,84.5,103.57,94c32.12,22.65,46.47,60.6,69.13,91.17q7.81,10.57,15.69,21.16c4.16-3.36,8.38-6.59,12.68-9.77-5.26-6.56-10.44-13.21-15.45-19.94-16.32-21.82-28.08-46.62-45.07-67.94-14-17.2-31.63-34.31-54.53-37.89-42.13-5-83.16,29.94-85.6,71.81-4.57,41.13,28.78,81.44,70.24,85,14.66.75,29.35.65,44,.55h72.41q-.84-7.77-1.4-15.49-6.47,0-12.83.14c-3.81,0-7.6,0-11.35,0-28.05.12-56.13.38-84.18.06-30.72-.29-58.42-25.69-61.45-56C11.68,127.41,31.35,97.13,59.89,88.57Z"/><path class="cls-1" d="M348.45,71.21h0l-.24-.14q-2.94-1.86-6-3.44c-15.43-8.24-25-9.2-25-9.2h0c-3.82-.66-7.7-1.13-11.46-1.9.24,5.32.44,10.7.47,16,4.57.7,9.11,1.45,13.68,2.26,24.84,6.7,45.15,27.54,50.39,52.68,5.82,24.91-3.58,52.45-23.39,68.78-28.75,24.59-76.7,21.73-102.45-5.95-24-23.27-42.57-51.3-59.33-79.94a225.41,225.41,0,0,0-39.28-48.95c-5.07-4.17-10-8.39-15.25-12.32-2.73,4.45-5.73,8.73-8.82,13,5.1,4,10.16,8,15.08,12.14,15.27,14.19,27.84,31,38.17,49,18,30.2,38.26,59.65,64.6,83.32,22.11,20.11,54.76,25.57,83.36,18.78,33.14-8.23,59.56-37.83,63.55-71.58C391.27,122.12,375.36,88.33,348.45,71.21Z"/><path class="cls-2" d="M299.19,64.5c-.53-10.78-14.64-17.28-23.13-10.46-8.88,5.81-7.6,20.63,2.18,24.85C287.84,84.09,300.67,75.25,299.19,64.5ZM284.7,71.3a5.45,5.45,0,0,1-1.34-10.75l.08,0,.44-.07a2.9,2.9,0,0,1,.71-.07l.11,0a5.47,5.47,0,1,1,0,10.94Z"/><path class="cls-2" d="M101.68,30.83c-9,4.25-10.56,17.77-2.68,23.9,7.68,7.2,21.88,2.49,23.71-7.83C126,35.46,112,24.68,101.68,30.83Zm6.87,18.25a5.47,5.47,0,1,1,5.51-5.46A5.48,5.48,0,0,1,108.55,49.08Z"/></g></g></svg>